<svg width="197" height="34" viewBox="0 0 197 34" fill="none" xmlns="http://www.w3.org/2000/svg">
<path d="M21.377 17.4746C21.1777 20.2285 20.1582 22.3965 18.3184 23.9785C16.4902 25.5605 14.0762 26.3516 11.0762 26.3516C7.79492 26.3516 5.21094 25.25 3.32422 23.0469C1.44922 20.832 0.511719 17.7969 0.511719 13.9414V12.377C0.511719 9.91602 0.945312 7.74805 1.8125 5.87305C2.67969 3.99805 3.91602 2.5625 5.52148 1.56641C7.13867 0.558594 9.01367 0.0546875 11.1465 0.0546875C14.0996 0.0546875 16.4785 0.845703 18.2832 2.42773C20.0879 4.00977 21.1309 6.23047 21.4121 9.08984H16.1387C16.0098 7.4375 15.5469 6.24219 14.75 5.50391C13.9648 4.75391 12.7637 4.37891 11.1465 4.37891C9.38867 4.37891 8.07031 5.01172 7.19141 6.27734C6.32422 7.53125 5.87891 9.48242 5.85547 12.1309V14.0645C5.85547 16.8301 6.27148 18.8516 7.10352 20.1289C7.94727 21.4062 9.27148 22.0449 11.0762 22.0449C12.7051 22.0449 13.918 21.6758 14.7148 20.9375C15.5234 20.1875 15.9863 19.0332 16.1035 17.4746H21.377ZM35.1934 11.7441C34.502 11.6504 33.8926 11.6035 33.3652 11.6035C31.4434 11.6035 30.1836 12.2539 29.5859 13.5547V26H24.5059V6.98047H29.3047L29.4453 9.24805C30.4648 7.50195 31.877 6.62891 33.6816 6.62891C34.2441 6.62891 34.7715 6.70508 35.2637 6.85742L35.1934 11.7441ZM45.0723 18.8105L48.5879 6.98047H54.0371L46.3906 28.9531L45.9688 29.9551C44.832 32.4395 42.957 33.6816 40.3438 33.6816C39.6055 33.6816 38.8555 33.5703 38.0938 33.3477V29.498L38.8672 29.5156C39.8281 29.5156 40.543 29.3691 41.0117 29.0762C41.4922 28.7832 41.8672 28.2969 42.1367 27.6172L42.7344 26.0527L36.0723 6.98047H41.5391L45.0723 18.8105ZM73.1621 16.666C73.1621 19.5957 72.4941 21.9453 71.1582 23.7148C69.834 25.4727 68.041 26.3516 65.7793 26.3516C63.8574 26.3516 62.3047 25.6836 61.1211 24.3477V33.3125H56.041V6.98047H60.752L60.9277 8.84375C62.1582 7.36719 63.7637 6.62891 65.7441 6.62891C68.0879 6.62891 69.9102 7.49609 71.2109 9.23047C72.5117 10.9648 73.1621 13.3555 73.1621 16.4023V16.666ZM68.082 16.2969C68.082 14.5273 67.7656 13.1621 67.1328 12.2012C66.5117 11.2402 65.6035 10.7598 64.4082 10.7598C62.8145 10.7598 61.7188 11.3691 61.1211 12.5879V20.375C61.7422 21.6289 62.8496 22.2559 64.4434 22.2559C66.8691 22.2559 68.082 20.2695 68.082 16.2969ZM82.4082 2.30469V6.98047H85.6602V10.707H82.4082V20.1992C82.4082 20.9023 82.543 21.4062 82.8125 21.7109C83.082 22.0156 83.5977 22.168 84.3594 22.168C84.9219 22.168 85.4199 22.127 85.8535 22.0449V25.8945C84.8574 26.1992 83.832 26.3516 82.7773 26.3516C79.2148 26.3516 77.3984 24.5527 77.3281 20.9551V10.707H74.5508V6.98047H77.3281V2.30469H82.4082ZM87.1719 16.3145C87.1719 14.4277 87.5352 12.7461 88.2617 11.2695C88.9883 9.79297 90.0312 8.65039 91.3906 7.8418C92.7617 7.0332 94.3496 6.62891 96.1543 6.62891C98.7207 6.62891 100.812 7.41406 102.43 8.98438C104.059 10.5547 104.967 12.6875 105.154 15.3828L105.189 16.6836C105.189 19.6016 104.375 21.9453 102.746 23.7148C101.117 25.4727 98.9316 26.3516 96.1895 26.3516C93.4473 26.3516 91.2559 25.4727 89.6152 23.7148C87.9863 21.957 87.1719 19.5664 87.1719 16.543V16.3145ZM92.252 16.6836C92.252 18.4883 92.5918 19.8711 93.2715 20.832C93.9512 21.7812 94.9238 22.2559 96.1895 22.2559C97.4199 22.2559 98.3809 21.7871 99.0723 20.8496C99.7637 19.9004 100.109 18.3887 100.109 16.3145C100.109 14.5449 99.7637 13.1738 99.0723 12.2012C98.3809 11.2285 97.4082 10.7422 96.1543 10.7422C94.9121 10.7422 93.9512 11.2285 93.2715 12.2012C92.5918 13.1621 92.252 14.6562 92.252 16.6836ZM132.066 20.7266H122.82L121.062 26H115.455L124.982 0.40625H129.869L139.449 26H133.842L132.066 20.7266ZM124.244 16.4551H130.643L127.426 6.875L124.244 16.4551ZM157.783 16.666C157.783 19.5957 157.115 21.9453 155.779 23.7148C154.455 25.4727 152.662 26.3516 150.4 26.3516C148.479 26.3516 146.926 25.6836 145.742 24.3477V33.3125H140.662V6.98047H145.373L145.549 8.84375C146.779 7.36719 148.385 6.62891 150.365 6.62891C152.709 6.62891 154.531 7.49609 155.832 9.23047C157.133 10.9648 157.783 13.3555 157.783 16.4023V16.666ZM152.703 16.2969C152.703 14.5273 152.387 13.1621 151.754 12.2012C151.133 11.2402 150.225 10.7598 149.029 10.7598C147.436 10.7598 146.34 11.3691 145.742 12.5879V20.375C146.363 21.6289 147.471 22.2559 149.064 22.2559C151.49 22.2559 152.703 20.2695 152.703 16.2969ZM178.068 16.666C178.068 19.5957 177.4 21.9453 176.064 23.7148C174.74 25.4727 172.947 26.3516 170.686 26.3516C168.764 26.3516 167.211 25.6836 166.027 24.3477V33.3125H160.947V6.98047H165.658L165.834 8.84375C167.064 7.36719 168.67 6.62891 170.65 6.62891C172.994 6.62891 174.816 7.49609 176.117 9.23047C177.418 10.9648 178.068 13.3555 178.068 16.4023V16.666ZM172.988 16.2969C172.988 14.5273 172.672 13.1621 172.039 12.2012C171.418 11.2402 170.51 10.7598 169.314 10.7598C167.721 10.7598 166.625 11.3691 166.027 12.5879V20.375C166.648 21.6289 167.756 22.2559 169.35 22.2559C171.775 22.2559 172.988 20.2695 172.988 16.2969ZM191.533 20.7441C191.533 20.123 191.223 19.6367 190.602 19.2852C189.992 18.9219 189.008 18.5996 187.648 18.3184C183.125 17.3691 180.863 15.4473 180.863 12.5527C180.863 10.8652 181.561 9.45898 182.955 8.33398C184.361 7.19727 186.195 6.62891 188.457 6.62891C190.871 6.62891 192.799 7.19727 194.24 8.33398C195.693 9.4707 196.42 10.9473 196.42 12.7637H191.34C191.34 12.0371 191.105 11.4395 190.637 10.9707C190.168 10.4902 189.436 10.25 188.439 10.25C187.584 10.25 186.922 10.4434 186.453 10.8301C185.984 11.2168 185.75 11.709 185.75 12.3066C185.75 12.8691 186.014 13.3262 186.541 13.6777C187.08 14.0176 187.982 14.3164 189.248 14.5742C190.514 14.8203 191.58 15.1016 192.447 15.418C195.131 16.4023 196.473 18.1074 196.473 20.5332C196.473 22.2676 195.729 23.6738 194.24 24.752C192.752 25.8184 190.83 26.3516 188.475 26.3516C186.881 26.3516 185.463 26.0703 184.221 25.5078C182.99 24.9336 182.023 24.1543 181.32 23.1699C180.617 22.1738 180.266 21.1016 180.266 19.9531H185.082C185.129 20.8555 185.463 21.5469 186.084 22.0273C186.705 22.5078 187.537 22.748 188.58 22.748C189.553 22.748 190.285 22.5664 190.777 22.2031C191.281 21.8281 191.533 21.3418 191.533 20.7441Z" fill="url(#paint0_linear_6_30)"/>
<defs>
<linearGradient id="paint0_linear_6_30" x1="-97.5" y1="-27.5" x2="204.5" y2="31.5" gradientUnits="userSpaceOnUse">
<stop stop-color="#FF923D"/>
<stop offset="1" stop-color="#D04422" stop-opacity="0.448822"/>
</linearGradient>
</defs>
</svg>
